<mxfile host="app.diagrams.net" agent="Mozilla/5.0 (Windows NT 10.0; Win64; x64; rv:140.0) Gecko/20100101 Firefox/140.0" version="28.0.3">
  <diagram name="Página-1" id="7xqfnRYCcl9cOrJLdNOv">
    <mxGraphModel dx="983" dy="518" grid="1" gridSize="10" guides="1" tooltips="1" connect="1" arrows="1" fold="1" page="1" pageScale="1" pageWidth="850" pageHeight="1100" math="0" shadow="0">
      <root>
        <mxCell id="0" />
        <mxCell id="1" parent="0" />
        <mxCell id="3BfeAzv24xEFP0cl_79i-1" value="" style="group" vertex="1" connectable="0" parent="1">
          <mxGeometry x="110" y="110" width="590" height="451" as="geometry" />
        </mxCell>
        <mxCell id="8E8HEakJHe4h-VglnAm--4" value="" style="rounded=0;whiteSpace=wrap;html=1;fillColor=none;container=0;" vertex="1" parent="3BfeAzv24xEFP0cl_79i-1">
          <mxGeometry x="10" y="-40" width="580" height="491" as="geometry" />
        </mxCell>
        <mxCell id="3BfeAzv24xEFP0cl_79i-22" style="edgeStyle=orthogonalEdgeStyle;rounded=0;orthogonalLoop=1;jettySize=auto;html=1;exitX=1;exitY=0.5;exitDx=0;exitDy=0;endArrow=none;endFill=0;" edge="1" parent="3BfeAzv24xEFP0cl_79i-1" source="3BfeAzv24xEFP0cl_79i-2" target="3BfeAzv24xEFP0cl_79i-7">
          <mxGeometry relative="1" as="geometry" />
        </mxCell>
        <mxCell id="3BfeAzv24xEFP0cl_79i-2" value="Entrar a inicio" style="ellipse;whiteSpace=wrap;html=1;" vertex="1" parent="3BfeAzv24xEFP0cl_79i-1">
          <mxGeometry x="61.93354838709677" y="155" width="88.06451612903226" height="55.00000000000001" as="geometry" />
        </mxCell>
        <mxCell id="3BfeAzv24xEFP0cl_79i-6" value="&lt;div&gt;Iniciar sesión&lt;/div&gt;" style="ellipse;whiteSpace=wrap;html=1;" vertex="1" parent="3BfeAzv24xEFP0cl_79i-1">
          <mxGeometry x="70.97" y="50" width="70" height="44" as="geometry" />
        </mxCell>
        <mxCell id="3BfeAzv24xEFP0cl_79i-7" value="&lt;div&gt;Registrar usuario&lt;/div&gt;" style="ellipse;whiteSpace=wrap;html=1;" vertex="1" parent="3BfeAzv24xEFP0cl_79i-1">
          <mxGeometry x="239.02999999999997" y="157.5" width="81.94" height="50" as="geometry" />
        </mxCell>
        <mxCell id="3BfeAzv24xEFP0cl_79i-18" value="Recuperar" style="ellipse;whiteSpace=wrap;html=1;" vertex="1" parent="3BfeAzv24xEFP0cl_79i-1">
          <mxGeometry x="20" y="280" width="81.94" height="50" as="geometry" />
        </mxCell>
        <mxCell id="3BfeAzv24xEFP0cl_79i-20" style="edgeStyle=orthogonalEdgeStyle;rounded=0;orthogonalLoop=1;jettySize=auto;html=1;exitX=0.5;exitY=0;exitDx=0;exitDy=0;entryX=0.5;entryY=1;entryDx=0;entryDy=0;verticalAlign=middle;endArrow=none;endFill=0;" edge="1" parent="3BfeAzv24xEFP0cl_79i-1" source="3BfeAzv24xEFP0cl_79i-2" target="3BfeAzv24xEFP0cl_79i-6">
          <mxGeometry relative="1" as="geometry" />
        </mxCell>
        <mxCell id="3BfeAzv24xEFP0cl_79i-21" value="Crear Token" style="ellipse;whiteSpace=wrap;html=1;" vertex="1" parent="3BfeAzv24xEFP0cl_79i-1">
          <mxGeometry x="80" y="370" width="80" height="60" as="geometry" />
        </mxCell>
        <mxCell id="3BfeAzv24xEFP0cl_79i-29" style="edgeStyle=orthogonalEdgeStyle;rounded=0;orthogonalLoop=1;jettySize=auto;html=1;exitX=0.5;exitY=1;exitDx=0;exitDy=0;entryX=1;entryY=0.5;entryDx=0;entryDy=0;" edge="1" parent="3BfeAzv24xEFP0cl_79i-1" source="3BfeAzv24xEFP0cl_79i-23" target="3BfeAzv24xEFP0cl_79i-7">
          <mxGeometry relative="1" as="geometry">
            <Array as="points">
              <mxPoint x="405" y="183" />
              <mxPoint x="340" y="183" />
            </Array>
          </mxGeometry>
        </mxCell>
        <mxCell id="3BfeAzv24xEFP0cl_79i-30" value="&lt;div&gt;&amp;lt;&amp;lt;includes&amp;gt;&amp;gt;&lt;/div&gt;" style="edgeLabel;html=1;align=center;verticalAlign=middle;resizable=0;points=[];" vertex="1" connectable="0" parent="3BfeAzv24xEFP0cl_79i-29">
          <mxGeometry x="-0.0679" y="-2" relative="1" as="geometry">
            <mxPoint as="offset" />
          </mxGeometry>
        </mxCell>
        <mxCell id="3BfeAzv24xEFP0cl_79i-23" value="&lt;div&gt;Validar&amp;nbsp;Contraseña&lt;/div&gt;" style="ellipse;whiteSpace=wrap;html=1;" vertex="1" parent="3BfeAzv24xEFP0cl_79i-1">
          <mxGeometry x="350" y="20" width="110" height="34" as="geometry" />
        </mxCell>
        <mxCell id="3BfeAzv24xEFP0cl_79i-31" value="Validar Correo" style="ellipse;whiteSpace=wrap;html=1;" vertex="1" parent="3BfeAzv24xEFP0cl_79i-1">
          <mxGeometry x="235" y="20" width="90" height="50" as="geometry" />
        </mxCell>
        <mxCell id="3BfeAzv24xEFP0cl_79i-32" style="edgeStyle=orthogonalEdgeStyle;rounded=0;orthogonalLoop=1;jettySize=auto;html=1;" edge="1" parent="3BfeAzv24xEFP0cl_79i-1" source="3BfeAzv24xEFP0cl_79i-31" target="3BfeAzv24xEFP0cl_79i-7">
          <mxGeometry relative="1" as="geometry">
            <mxPoint x="383" y="98.5" as="sourcePoint" />
            <mxPoint x="230" y="157.5" as="targetPoint" />
            <Array as="points">
              <mxPoint x="280" y="100" />
              <mxPoint x="280" y="100" />
            </Array>
          </mxGeometry>
        </mxCell>
        <mxCell id="3BfeAzv24xEFP0cl_79i-33" value="&lt;div&gt;&amp;lt;&amp;lt;includes&amp;gt;&amp;gt;&lt;/div&gt;" style="edgeLabel;html=1;align=center;verticalAlign=middle;resizable=0;points=[];" vertex="1" connectable="0" parent="3BfeAzv24xEFP0cl_79i-32">
          <mxGeometry x="-0.0679" y="-2" relative="1" as="geometry">
            <mxPoint as="offset" />
          </mxGeometry>
        </mxCell>
        <mxCell id="8E8HEakJHe4h-VglnAm--1" value="&lt;div&gt;usuario&lt;/div&gt;" style="shape=umlActor;verticalLabelPosition=bottom;verticalAlign=top;html=1;outlineConnect=0;container=0;" vertex="1" parent="1">
          <mxGeometry x="40" y="250" width="30" height="60" as="geometry" />
        </mxCell>
        <mxCell id="3BfeAzv24xEFP0cl_79i-4" style="edgeStyle=orthogonalEdgeStyle;rounded=0;orthogonalLoop=1;jettySize=auto;html=1;exitX=0.5;exitY=0.5;exitDx=0;exitDy=0;exitPerimeter=0;" edge="1" parent="1" source="8E8HEakJHe4h-VglnAm--1" target="3BfeAzv24xEFP0cl_79i-2">
          <mxGeometry relative="1" as="geometry" />
        </mxCell>
      </root>
    </mxGraphModel>
  </diagram>
</mxfile>
